<?xml version="1.0"?>
<svg xmlns="http://www.w3.org/2000/svg" xmlns:xlink="http://www.w3.org/1999/xlink" xmlns:svgjs="http://svgjs.com/svgjs" version="1.1" width="512" height="512" x="0" y="0" viewBox="0 0 512 512" style="enable-background:new 0 0 512 512" xml:space="preserve" class=""><g><g xmlns="http://www.w3.org/2000/svg"><g><path d="m74.99 211.001c-3.286 0-6.595-1.075-9.361-3.288-6.469-5.175-7.518-14.614-2.342-21.083l120-150c5.175-6.469 14.614-7.519 21.083-2.342 6.469 5.175 7.518 14.614 2.342 21.083l-120 150c-2.962 3.703-7.321 5.63-11.722 5.63z" fill="#596c76" data-original="#596c76" style=""/></g><g><path d="m437.01 211.001c-4.401 0-8.76-1.927-11.723-5.63l-120-150c-5.175-6.469-4.126-15.909 2.342-21.083 6.47-5.175 15.909-4.125 21.083 2.342l120 150c5.175 6.469 4.126 15.909-2.342 21.083-2.765 2.213-6.075 3.288-9.36 3.288z" fill="#465a61" data-original="#465a61" style=""/></g><g id="Basket"><g><g><path d="m407 481h-302c-6.697 0-12.583-4.439-14.423-10.879l-60-210c-1.293-4.525-.387-9.396 2.448-13.153 2.834-3.758 7.268-5.968 11.975-5.968h422c4.707 0 9.141 2.209 11.975 5.967 2.834 3.757 3.741 8.628 2.448 13.153l-60 210c-1.84 6.441-7.726 10.88-14.423 10.88z" fill="#a2c2f1" data-original="#ff6c6c" style="" class=""/></g></g><path d="m467 241h-211v240h151c6.697 0 12.583-4.439 14.423-10.879l60-210c1.293-4.525.387-9.396-2.448-13.153-2.834-3.758-7.268-5.968-11.975-5.968z" fill="#5e9af3" data-original="#e63950" style="" class=""/><g><g><path d="m339.518 421.003c-.819 0-1.649-.067-2.484-.207-8.172-1.362-13.692-9.09-12.33-17.262l15-90c1.362-8.172 9.09-13.696 17.262-12.33 8.172 1.362 13.692 9.09 12.33 17.262l-15 90c-1.223 7.337-7.578 12.537-14.778 12.537z" fill="#0d6efd" data-original="#ae2538" style="" class=""/></g><g><path d="m173.482 421.003c-7.201 0-13.555-5.199-14.778-12.537l-15-90c-1.362-8.171 4.158-15.9 12.33-17.262 8.173-1.361 15.9 4.158 17.262 12.33l15 90c1.362 8.171-4.158 15.9-12.33 17.262-.835.14-1.665.207-2.484.207z" fill="#5e9af3" data-original="#e63950" style="" class=""/></g></g><g><g><path d="m497 271h-482c-8.284 0-15-6.716-15-15v-60c0-8.284 6.716-15 15-15h482c8.284 0 15 6.716 15 15v60c0 8.285-6.716 15-15 15z" fill="#5e9af3" data-original="#e63950" style="" class=""/></g></g><g><path d="m256 421c-8.284 0-15-6.716-15-15v-90c0-8.284 6.716-15 15-15s15 6.716 15 15v90c0 8.285-6.716 15-15 15z" fill="#5e9af3" data-original="#e63950" style="" class=""/></g></g><g fill="#ae2538"><path d="m497 271c8.284 0 15-6.716 15-15v-60c0-8.284-6.716-15-15-15h-241v90z" fill="#0d6efd" data-original="#ae2538" style="" class=""/><path d="m271 406v-90c0-8.284-6.716-15-15-15v120c8.284 0 15-6.715 15-15z" fill="#0d6efd" data-original="#ae2538" style="" class=""/></g></g></g></svg>
